<svg width="213" height="28" viewBox="0 0 213 28" fill="none" xmlns="http://www.w3.org/2000/svg">
<path d="M0.925 27V1.24H15.085C17.6983 1.24 19.685 1.85333 21.045 3.08C22.405 4.30666 23.085 6.06667 23.085 8.36C23.085 9.69333 22.8317 10.8133 22.325 11.72C21.845 12.6267 21.205 13.3467 20.405 13.88C21.4983 14.3067 22.365 14.9333 23.005 15.76C23.6717 16.56 24.005 17.76 24.005 19.36C24.005 21.7867 23.2583 23.6667 21.765 25C20.2717 26.3333 18.1517 27 15.405 27H0.925ZM8.165 11.52H13.045C14.885 11.52 15.805 10.6933 15.805 9.04C15.805 8.21333 15.5783 7.58667 15.125 7.16C14.6983 6.73333 13.9383 6.52 12.845 6.52H8.165V11.52ZM8.165 21.76H13.365C14.3783 21.76 15.125 21.5467 15.605 21.12C16.085 20.6933 16.325 19.9867 16.325 19C16.325 18.1733 16.085 17.5467 15.605 17.12C15.125 16.6933 14.325 16.48 13.205 16.48H8.165V21.76ZM37.2634 27.4C35.0501 27.4 33.0901 27.04 31.3834 26.32C29.7034 25.5733 28.3834 24.4667 27.4234 23C26.4901 21.5333 26.0234 19.72 26.0234 17.56C26.0234 14.5467 26.8768 12.1467 28.5834 10.36C30.2901 8.54667 32.8368 7.64 36.2234 7.64C39.3168 7.64 41.7301 8.42667 43.4634 10C45.2234 11.5733 46.1034 13.72 46.1034 16.44V19.76H32.9434C33.2901 20.7733 33.9701 21.4933 34.9834 21.92C35.9968 22.3467 37.3701 22.56 39.1034 22.56C40.1968 22.56 41.2901 22.4667 42.3834 22.28C43.5034 22.0667 44.3968 21.8267 45.0634 21.56V26.08C43.1968 26.96 40.5968 27.4 37.2634 27.4ZM32.9434 15.68H39.6234V15C39.6234 14.2533 39.3834 13.64 38.9034 13.16C38.4501 12.68 37.6368 12.44 36.4634 12.44C35.1568 12.44 34.2368 12.72 33.7034 13.28C33.1968 13.8133 32.9434 14.6133 32.9434 15.68ZM57.0138 27.4C54.4804 27.4 52.6404 26.76 51.4938 25.48C50.3471 24.2 49.7738 22.4667 49.7738 20.28V13.6H47.2938V8.04H49.7738V4.16L57.2938 2.36V8.04H61.6538L61.3738 13.6H57.2938V19.72C57.2938 20.52 57.4938 21.0933 57.8938 21.44C58.2938 21.76 58.9071 21.92 59.7338 21.92C60.5071 21.92 61.2938 21.7867 62.0938 21.52V26.52C60.6804 27.1067 58.9871 27.4 57.0138 27.4ZM72.2091 27.4C69.6757 27.4 67.8357 26.76 66.6891 25.48C65.5424 24.2 64.9691 22.4667 64.9691 20.28V13.6H62.4891V8.04H64.9691V4.16L72.4891 2.36V8.04H76.8491L76.5691 13.6H72.4891V19.72C72.4891 20.52 72.6891 21.0933 73.0891 21.44C73.4891 21.76 74.1024 21.92 74.9291 21.92C75.7024 21.92 76.4891 21.7867 77.2891 21.52V26.52C75.8757 27.1067 74.1824 27.4 72.2091 27.4ZM89.7244 27.4C87.511 27.4 85.551 27.04 83.8444 26.32C82.1644 25.5733 80.8444 24.4667 79.8844 23C78.951 21.5333 78.4844 19.72 78.4844 17.56C78.4844 14.5467 79.3377 12.1467 81.0444 10.36C82.751 8.54667 85.2977 7.64 88.6844 7.64C91.7777 7.64 94.191 8.42667 95.9244 10C97.6844 11.5733 98.5644 13.72 98.5644 16.44V19.76H85.4044C85.751 20.7733 86.431 21.4933 87.4444 21.92C88.4577 22.3467 89.831 22.56 91.5644 22.56C92.6577 22.56 93.751 22.4667 94.8444 22.28C95.9644 22.0667 96.8577 21.8267 97.5244 21.56V26.08C95.6577 26.96 93.0577 27.4 89.7244 27.4ZM85.4044 15.68H92.0844V15C92.0844 14.2533 91.8444 13.64 91.3644 13.16C90.911 12.68 90.0977 12.44 88.9244 12.44C87.6177 12.44 86.6977 12.72 86.1644 13.28C85.6577 13.8133 85.4044 14.6133 85.4044 15.68ZM101.355 27V8.04H108.595L108.795 9.56C109.568 9.10667 110.555 8.69333 111.755 8.32C112.955 7.94667 114.168 7.72 115.395 7.64V13.24C114.701 13.2933 113.941 13.3867 113.115 13.52C112.315 13.6533 111.528 13.8267 110.755 14.04C110.008 14.2267 109.381 14.44 108.875 14.68V27H101.355ZM117.527 27V1.24H131.687C134.3 1.24 136.287 1.85333 137.647 3.08C139.007 4.30666 139.687 6.06667 139.687 8.36C139.687 9.69333 139.433 10.8133 138.927 11.72C138.447 12.6267 137.807 13.3467 137.007 13.88C138.1 14.3067 138.967 14.9333 139.607 15.76C140.273 16.56 140.607 17.76 140.607 19.36C140.607 21.7867 139.86 23.6667 138.367 25C136.873 26.3333 134.753 27 132.007 27H117.527ZM124.767 11.52H129.647C131.487 11.52 132.407 10.6933 132.407 9.04C132.407 8.21333 132.18 7.58667 131.727 7.16C131.3 6.73333 130.54 6.52 129.447 6.52H124.767V11.52ZM124.767 21.76H129.967C130.98 21.76 131.727 21.5467 132.207 21.12C132.687 20.6933 132.927 19.9867 132.927 19C132.927 18.1733 132.687 17.5467 132.207 17.12C131.727 16.6933 130.927 16.48 129.807 16.48H124.767V21.76ZM149.345 27.4C148.145 27.4 147.025 27.1867 145.985 26.76C144.972 26.3333 144.158 25.6667 143.545 24.76C142.932 23.8533 142.625 22.7067 142.625 21.32C142.625 19.32 143.292 17.7733 144.625 16.68C145.958 15.56 147.972 15 150.665 15H155.585V14.64C155.585 13.8933 155.278 13.3467 154.665 13C154.052 12.6533 152.972 12.48 151.425 12.48C149.238 12.48 147.078 12.8133 144.945 13.48V8.96C145.905 8.58667 147.105 8.28 148.545 8.04C149.985 7.77333 151.452 7.64 152.945 7.64C155.958 7.64 158.345 8.25333 160.105 9.48C161.865 10.7067 162.745 12.6533 162.745 15.32V27H156.185L155.825 25.48C155.158 26.0667 154.292 26.5333 153.225 26.88C152.185 27.2267 150.892 27.4 149.345 27.4ZM151.905 23C152.758 23 153.478 22.8533 154.065 22.56C154.678 22.2667 155.185 21.9067 155.585 21.48V19.12H151.945C150.292 19.12 149.465 19.7733 149.465 21.08C149.465 22.36 150.278 23 151.905 23ZM166.159 27V8.04H173.199L173.399 9.48C174.119 9 175.066 8.57333 176.239 8.2C177.439 7.82667 178.719 7.64 180.079 7.64C182.453 7.64 184.186 8.22667 185.279 9.4C186.373 10.5733 186.919 12.3867 186.919 14.84V27H179.399V15.6C179.399 14.7467 179.213 14.1333 178.839 13.76C178.466 13.3867 177.813 13.2 176.879 13.2C176.319 13.2 175.733 13.3333 175.119 13.6C174.533 13.8667 174.053 14.1867 173.679 14.56V27H166.159ZM190.3 27V0.039999H197.82V13.36L203.1 8.04H211.62L204.06 16.04L212.06 27H204.06L199.38 19.96L197.82 21.52V27H190.3Z" fill="#3156ED"/>
</svg>
